<svg xmlns="http://www.w3.org/2000/svg" viewBox="0 0 400 322" width="400" height="322">
  <defs>
    <linearGradient id="g" x1="0" y1="0" x2="1" y2="1">
      <stop offset="0%" stop-color="#1a0000"/><stop offset="100%" stop-color="#400000"/>
    </linearGradient>
    <filter id="glow"><feGaussianBlur stdDeviation="3"/><feMerge><feMergeNode/><feMergeNode in="SourceGraphic"/></feMerge></filter>
  </defs>
  <rect width="400" height="322" fill="url(#g)"/>
  <rect x="20" y="20" width="50" height="14" rx="3" fill="#ff4040" opacity="0.9"/>
  <rect x="80" y="20" width="50" height="14" rx="3" fill="#ff4040" opacity="0.7"/>
  <rect x="260" y="20" width="50" height="14" rx="3" fill="#ff4040" opacity="0.8"/>
  <rect x="320" y="20" width="50" height="14" rx="3" fill="#ff4040" opacity="0.6"/>
  <rect x="50" y="44" width="50" height="14" rx="3" fill="#ff4040" opacity="0.8"/>
  <rect x="200" y="44" width="50" height="14" rx="3" fill="#ff4040" opacity="0.5"/>
  <rect x="290" y="44" width="50" height="14" rx="3" fill="#ff4040" opacity="0.9"/>
  <rect x="20" y="68" width="50" height="14" rx="3" fill="#ff4040" opacity="0.6"/>
  <rect x="120" y="68" width="50" height="14" rx="3" fill="#ff4040" opacity="0.9"/>
  <rect x="230" y="68" width="50" height="14" rx="3" fill="#ff4040" opacity="0.7"/>
  <rect x="320" y="68" width="50" height="14" rx="3" fill="#ff4040" opacity="0.5"/>
  <rect x="50" y="92" width="50" height="14" rx="3" fill="#ff4040" opacity="0.8"/>
  <rect x="180" y="92" width="50" height="14" rx="3" fill="#ff4040" opacity="0.6"/>
  <rect x="290" y="92" width="50" height="14" rx="3" fill="#ff4040" opacity="0.9"/>
  <circle cx="200" cy="250" r="10" fill="#fcb900" filter="url(#glow)"/>
  <rect x="160" y="280" width="80" height="10" rx="5" fill="#ff4040" filter="url(#glow)"/>
</svg>