<svg xmlns="http://www.w3.org/2000/svg" viewBox="0 0 400 322" width="400" height="322">
  <defs>
    <linearGradient id="g" x1="0" y1="0" x2="1" y2="1">
      <stop offset="0%" stop-color="#1a1000"/><stop offset="100%" stop-color="#3d2000"/>
    </linearGradient>
    <filter id="glow"><feGaussianBlur stdDeviation="3"/><feMerge><feMergeNode/><feMergeNode in="SourceGraphic"/></feMerge></filter>
  </defs>
  <rect width="400" height="322" fill="url(#g)"/>
  <rect x="20" y="20" width="50" height="16" rx="4" fill="#fcb900" opacity="0.9"/>
  <rect x="80" y="20" width="50" height="16" rx="4" fill="#fcb900" opacity="0.7"/>
  <rect x="140" y="20" width="50" height="16" rx="4" fill="#fcb900" opacity="0.5"/>
  <rect x="260" y="20" width="50" height="16" rx="4" fill="#fcb900" opacity="0.8"/>
  <rect x="320" y="20" width="50" height="16" rx="4" fill="#fcb900" opacity="0.6"/>
  <rect x="50" y="46" width="50" height="16" rx="4" fill="#fcb900" opacity="0.8"/>
  <rect x="170" y="46" width="50" height="16" rx="4" fill="#fcb900" opacity="0.9"/>
  <rect x="290" y="46" width="50" height="16" rx="4" fill="#fcb900" opacity="0.5"/>
  <rect x="20" y="72" width="50" height="16" rx="4" fill="#fcb900" opacity="0.7"/>
  <rect x="110" y="72" width="50" height="16" rx="4" fill="#fcb900" opacity="0.9"/>
  <rect x="230" y="72" width="50" height="16" rx="4" fill="#fcb900" opacity="0.6"/>
  <rect x="320" y="72" width="50" height="16" rx="4" fill="#fcb900" opacity="0.8"/>
  <circle cx="200" cy="250" r="11" fill="#ffd700" filter="url(#glow)"/>
  <rect x="150" y="278" width="100" height="10" rx="5" fill="#fcb900" filter="url(#glow)"/>
</svg>